# xmcd
# Copyright (C) 1995-1998 Ti Kan
#
# Track frame offsets:
#       150
#       7522
#       24709
#       39462
#       56963
#       70284
#       89249
#       106732
#       124594
#       136863
#
# Disc length: 2044 seconds
#
# Revision: 0
# Processed by: cddbd v1.5.2PL0 Copyright (c) Steve Scherf et al.
# Submitted via: CD-Transfer v1.0
#
DISCID=8007fa0a
DTITLE=Queen Of Sabe - Sabina Herman
DYEAR=15
DGENRE=
TTITLE0=Intro
TTITLE1=Tragovi
TTITLE2=Sama
TTITLE3=Lica
TTITLE4=Nikada
TTITLE5=Ponovo
TTITLE6=Crni Mjesec
TTITLE7=Sjene
TTITLE8=Nismo Bogovi
TTITLE9=Nebo (Iznad Krovova)
EXTD=
EXTT0=
EXTT1=
EXTT2=
EXTT3=
EXTT4=
EXTT5=
EXTT6=
EXTT7=
EXTT8=
EXTT9=
PLAYORDER=
